<svg width="175" height="159" viewBox="0 0 175 159" fill="none" xmlns="http://www.w3.org/2000/svg">
<path d="M94.766 83.987C93.4361 83.9192 92.1768 84.1687 91.0662 84.7197C88.1663 86.0959 86.7074 88.8955 87.808 90.9723C88.9086 93.0492 92.1516 93.6162 95.0516 92.24C96.1823 91.727 97.1467 90.9217 97.8857 89.8739C98.2258 89.3623 98.2088 88.5876 97.8427 87.8983L96.4129 85.2004C96.0487 84.5099 95.4024 84.0341 94.766 83.987Z" fill="#D5D6DB"/>
<path d="M87.0504 56.9815C86.0861 56.9325 85.1728 57.1136 84.3675 57.5132C82.2651 58.5109 81.2065 60.5408 82.0039 62.0456C82.8014 63.5504 85.1538 63.9616 87.2559 62.964C88.0757 62.5916 88.775 62.0072 89.311 61.2473C89.5572 60.8764 89.5448 60.315 89.2794 59.8153L88.2441 57.8616C87.9803 57.3611 87.5119 57.0158 87.0504 56.9815Z" fill="#D5D6DB"/>
<path d="M74.1772 54.6981C73.9534 54.6012 73.7261 54.5968 73.5396 54.6851L68.6191 57.0052C68.2074 57.1982 68.1009 57.7825 68.3818 58.3105C68.446 58.4315 68.5277 58.5431 68.6224 58.6389L83.1012 73.365L99.5087 65.6285L74.1772 54.6981Z" fill="#029BC5"/>
<path d="M131.228 64.7938L83.8475 90.8445L54.8682 96.4309L39.6734 94.9711L37.5661 90.293L116.682 48.3171C119.039 47.0567 121.771 46.7575 124.602 47.4502C125.842 47.7629 127.088 48.2782 128.308 48.9834C129.389 49.5971 130.436 50.3976 131.417 51.361C132.512 52.4469 134.476 53.2501 135.245 54.8917C135.247 54.8903 137.365 61.9053 131.228 64.7938V64.7938Z" fill="#E1E6E9"/>
<path d="M81.8897 79.2665L64.6686 116.117C64.4608 116.646 64.6964 117.396 65.1945 117.793C65.5002 118.036 65.8496 118.099 66.1228 117.959L71.2209 115.359C72.2015 114.858 73.0347 114.083 73.6692 113.082L109.441 64.1404L81.8897 79.2665Z" fill="#029BC5"/>
<path d="M29.6129 79.7184C29.2522 79.4823 28.8499 79.4281 28.5328 79.5727L24.5524 81.3877C24.01 81.6347 23.8707 82.3803 24.2412 83.0533C24.3118 83.1813 24.3979 83.3011 24.4968 83.4082L37.9923 98.0501L49.7389 92.8802L29.6129 79.7184Z" fill="#029BC5"/>
<path d="M40.4986 97.7082L34.8305 107.884C34.747 108.029 34.7946 108.264 34.9367 108.408C35.0392 108.512 35.1677 108.543 35.2638 108.488L39.2195 106.446C39.2503 106.43 39.2771 106.406 39.2982 106.375L47.8318 93.9279L40.4986 97.7082Z" fill="#029BC5"/>
<path d="M128.732 47.2495C127.529 46.6488 126.303 46.2118 125.08 45.9481C124.101 47.5776 123.585 49.5936 123.582 51.7951C123.614 52.2479 123.96 52.6765 124.355 52.7526C124.478 52.7761 124.596 52.7632 124.698 52.7149L131.796 49.2787C130.829 48.4553 129.797 47.7722 128.732 47.2495Z" fill="#029BC5"/>
<path d="M112.332 54.458L116.598 52.6284L121.926 61.8048L117.659 63.6344L112.332 54.458Z" fill="#D5D6DB"/>
<path d="M109.06 58.5875C108.543 58.8062 108.415 59.4957 108.775 60.1276L109.359 61.1512C109.736 61.7751 110.452 62.0863 110.958 61.8462C111.439 61.6175 111.559 60.9678 111.233 60.3593L110.649 59.3356C110.289 58.7043 109.578 58.3693 109.06 58.5875V58.5875Z" fill="#3A556A"/>
<path d="M104.596 61.3599C104.078 61.5787 103.95 62.2682 104.311 62.9L104.895 63.9237C105.272 64.5476 105.988 64.8588 106.493 64.6187C106.974 64.39 107.095 63.7403 106.769 63.1317L106.185 62.1081C105.825 61.4769 105.113 61.1419 104.596 61.3599V61.3599Z" fill="#3A556A"/>
<path d="M100.13 64.1329C99.6131 64.3523 99.486 65.0412 99.846 65.6725L100.43 66.6961C100.807 67.32 101.523 67.6312 102.029 67.3911C102.51 67.1624 102.63 66.5127 102.304 65.9042L101.72 64.8806C101.36 64.2488 100.648 63.914 100.13 64.1329V64.1329Z" fill="#3A556A"/>
<path d="M95.6658 66.9053C95.1488 67.1247 95.0217 67.8136 95.3817 68.4449L95.9656 69.4686C96.3432 70.0925 97.0589 70.4037 97.5644 70.1636C98.0455 69.9349 98.166 69.2852 97.8398 68.6767L97.2559 67.653C96.8953 67.0213 96.1835 66.6866 95.6658 66.9053V66.9053Z" fill="#3A556A"/>
<path d="M91.201 69.6773C90.6841 69.8965 90.557 70.5845 90.9169 71.215L91.5006 72.2373C91.8604 72.8676 92.5712 73.2016 93.0883 72.9833C93.6054 72.7651 93.7329 72.0773 93.3731 71.447L92.7894 70.4247C92.4303 69.7941 91.7196 69.4594 91.2021 69.6769C91.2016 69.6771 91.2014 69.6772 91.201 69.6773Z" fill="#3A556A"/>
<path d="M86.7365 72.4498C86.2197 72.6689 86.0926 73.3569 86.4525 73.9875L87.0362 75.0098C87.3959 75.64 88.1068 75.974 88.6239 75.7558C89.1409 75.5376 89.2684 74.8497 88.9087 74.2195L88.325 73.1971C87.9659 72.5666 87.2552 72.2319 86.7376 72.4493C86.7372 72.4495 86.7368 72.4497 86.7365 72.4498Z" fill="#3A556A"/>
<path d="M82.272 75.2225C81.7551 75.4416 81.628 76.1297 81.9879 76.7602L82.5716 77.7826C82.932 78.4126 83.6431 78.7455 84.1595 78.5265C84.675 78.3079 84.8023 77.6215 84.4439 76.9923L83.8602 75.9699C83.5005 75.3393 82.7896 75.0047 82.272 75.2225Z" fill="#3A556A"/>
<path d="M77.8074 77.9949C77.2905 78.2141 77.1634 78.9021 77.5233 79.5327L78.107 80.5551C78.4674 81.1851 79.1785 81.518 79.6949 81.299C80.2104 81.0804 80.3377 80.394 79.9793 79.7648L79.3956 78.7424C79.0359 78.1118 78.325 77.7771 77.8074 77.9949Z" fill="#3A556A"/>
<path d="M73.3431 80.7674C72.8263 80.9866 72.6991 81.6746 73.0591 82.3051L73.6427 83.3275C74.0032 83.9575 74.7142 84.2904 75.2306 84.0714C75.7462 83.8529 75.8734 83.1664 75.515 82.5372L74.9314 81.5149C74.5714 80.8843 73.8605 80.5497 73.3431 80.7674Z" fill="#3A556A"/>
<path d="M68.8773 83.5406C68.3602 83.7589 68.2327 84.4467 68.5925 85.077L68.5932 85.0783L69.1769 86.1007C69.5373 86.7307 70.2484 87.0637 70.7648 86.8447C71.2803 86.6261 71.4076 85.9397 71.0492 85.3104L70.4655 84.288C70.1058 83.6574 69.3949 83.3228 68.8773 83.5406Z" fill="#3A556A"/>
<path d="M64.4141 86.3124C63.897 86.5306 63.7695 87.2184 64.1293 87.8487L64.1301 87.85L64.7137 88.8724C65.0742 89.5024 65.7852 89.8353 66.3017 89.6164C66.8172 89.3978 66.9444 88.7114 66.5861 88.0822L66.0024 87.0598C65.6424 86.4293 64.9315 86.0946 64.4141 86.3124Z" fill="#3A556A"/>
</svg>
