<svg width="92" height="78" viewBox="0 0 92 78" fill="none" xmlns="http://www.w3.org/2000/svg">
<path d="M92 60C92 69.9411 83.9411 78 74 78L47 78C44.2386 78 42 75.7614 42 73L42 39C42 33.4772 46.4772 29 52 29L87 29C89.7614 29 92 31.2386 92 34L92 60Z" fill="#FFF1DA"/>
<path d="M23.527 50.6573L21.6389 49.7534L10.4222 66.338H22.9402L24.1464 65.5515V51.2249L23.527 50.6573Z" fill="#407093"/>
<path d="M21.8096 49.8353L17.5645 47.803H16.7644L4.76068 65.5516L5.47531 66.3382H10.6483L21.8096 49.8353Z" fill="#365E7D"/>
<path d="M26.4 65.5515H9.84754C9.09559 65.5515 8.48596 66.161 8.48596 66.9131V68.6385C8.48596 69.3903 9.09545 69.9998 9.84727 69.9999H26.4C27.152 69.9999 27.7616 69.3904 27.7616 68.6385V66.9131C27.7616 66.161 27.152 65.5515 26.4 65.5515Z" fill="#4A80AA"/>
<path d="M8.76775 68.6385V66.9131C8.76775 66.1611 9.37738 65.5515 10.1293 65.5515H1.36158C0.609627 65.5515 0 66.161 0 66.9131V68.6385C0 69.3904 0.609627 69.9999 1.36158 69.9999H10.1292C9.37724 69.9999 8.76775 69.3904 8.76775 68.6385Z" fill="#407093"/>
<path d="M21.2398 39.9827C20.7302 41.0338 20.4423 42.2123 20.4423 43.459C20.4423 46.8659 22.5757 49.7721 25.5783 50.9218C26.8674 50.5179 28.0128 49.7893 28.9176 48.8301V47.0893L21.2398 39.9827Z" fill="#4A80AA"/>
<path d="M20.5767 43.4862C20.5767 42.2683 20.8583 41.1171 21.357 40.0908L18.9027 37.8191H17.9069C16.4009 39.2397 15.4595 41.2524 15.4595 43.4861C15.4595 47.7891 18.9477 51.2774 23.2508 51.2774C24.1471 51.2774 25.0067 51.1236 25.8078 50.8448C22.7628 49.7855 20.5767 46.892 20.5767 43.4862Z" fill="#407093"/>
<path d="M65.812 0.924695C64.5791 -0.308232 62.5801 -0.308232 61.3473 0.924695L58.3345 3.93756V4.31941L62.0949 8.23954L62.7991 8.40223L65.8119 5.38937C67.0449 4.15658 67.0449 2.15762 65.812 0.924695Z" fill="#FFD086"/>
<path d="M66.6449 2.41492C66.5134 1.86915 66.238 1.35085 65.812 0.924695C64.5791 -0.308232 62.5801 -0.308232 61.3473 0.924695L58.3345 3.93756V4.31941L60.3282 6.3978C61.5169 5.16091 62.697 3.94029 63.3039 3.3334C64.3156 2.32182 65.7933 2.31403 66.6449 2.41492Z" fill="#FFC365"/>
<path d="M55.4975 8.95002C55.4629 8.95002 55.4279 8.94824 55.3927 8.94482L20.5763 5.51784C19.9957 5.46069 19.5714 4.94376 19.6286 4.36312C19.6857 3.78247 20.2029 3.35851 20.7833 3.41525L55.5997 6.84209C56.1802 6.89924 56.6046 7.41617 56.5475 7.99682C56.4937 8.54246 56.0342 8.95002 55.4975 8.95002Z" fill="#365E7D"/>
<path d="M30.6459 15.4682C30.1774 15.4682 29.7493 15.1541 29.6249 14.6796C29.4769 14.1153 29.8144 13.5378 30.3787 13.3897L55.2287 6.87166C55.793 6.72387 56.3706 7.06115 56.5185 7.62552C56.6666 8.18976 56.3292 8.76726 55.7648 8.91532L30.9147 15.4334C30.8248 15.4569 30.7345 15.4682 30.6459 15.4682Z" fill="#407093"/>
<path d="M62.2465 47.1359C61.7093 47.1359 61.2498 46.7279 61.1963 46.1822L57.7907 11.3444C57.734 10.7639 58.1586 10.2471 58.7392 10.1902C59.3199 10.1361 59.8366 10.5583 59.8933 11.1389L63.2989 45.9767C63.3557 46.5572 62.931 47.074 62.3504 47.1308C62.3155 47.1341 62.2808 47.1359 62.2465 47.1359Z" fill="#365E7D"/>
<path d="M52.2253 37.2475C52.1357 37.2475 52.0447 37.2359 51.9539 37.212C51.3899 37.0624 51.054 36.4841 51.2036 35.9201L57.8176 10.9741C57.967 10.41 58.5452 10.0746 59.1093 10.2236C59.6733 10.3732 60.0092 10.9515 59.8596 11.5155L53.2456 36.4615C53.1202 36.9348 52.6927 37.2475 52.2253 37.2475Z" fill="#407093"/>
<path d="M55.3069 6.96436L58.3274 3.94381L62.7914 8.40788L59.7709 11.4284L55.3069 6.96436Z" fill="#FFC365"/>
<path d="M57.6009 9.24573C58.3268 8.48557 59.4605 7.29995 60.557 6.15999L58.3346 3.9375L55.3136 6.95843L57.6009 9.24573Z" fill="#FFA90F"/>
<path d="M60.4509 13.1516C60.1806 13.1516 59.9101 13.0484 59.704 12.8422L53.8944 7.03281C53.4818 6.62019 53.4818 5.9515 53.8944 5.53875C54.3069 5.12641 54.9757 5.12641 55.3883 5.53875L61.1979 11.3482C61.6105 11.7608 61.6105 12.4295 61.1979 12.8422C60.9916 13.0486 60.7213 13.1516 60.4509 13.1516Z" fill="#4A80AA"/>
<path d="M61.1326 49.0375L25.7618 13.3599C21.0724 23.9465 20.2581 35.3112 23.7687 45.1113C33.4642 53.8572 47.9475 55.2002 61.2808 49.7025L61.1326 49.0375Z" fill="#B5DCFF"/>
<path d="M25.9502 13.5497L17.8463 5.37549L17.0341 5.45561C11.3245 19.3029 12.9917 34.3915 22.6683 44.0682C23.2544 44.6543 23.8609 45.2104 24.4853 45.738C20.4062 35.9495 21.0691 24.3074 25.9502 13.5497Z" fill="#8BCAFF"/>
<path d="M64.365 46.5017L28.4915 10.6282C28.1385 10.6826 27.7986 10.8431 27.5268 11.1149L25.9664 12.6754C25.6313 13.0105 25.4647 13.4481 25.4599 13.8874L61.2197 49.647C61.7514 50.1787 62.6134 50.1787 63.1451 49.647L64.3652 48.4271C64.8967 47.8955 64.8967 47.0334 64.365 46.5017Z" fill="#DBEDFF"/>
<path d="M26.0203 12.7021L27.5481 11.1743C27.8295 10.8929 28.1848 10.7318 28.5515 10.6882L20.2352 2.37192C19.7035 1.84022 18.8415 1.84022 18.3096 2.37192L17.0896 3.59199C16.5579 4.12369 16.5579 4.9857 17.0896 5.5174L25.5228 13.9506C25.5117 13.5 25.6764 13.0459 26.0203 12.7021Z" fill="#B5DCFF"/>
</svg>
